<?xml version="1.0" standalone="no"?>
<!DOCTYPE svg PUBLIC "-//W3C//DTD SVG 20010904//EN"
 "http://www.w3.org/TR/2001/REC-SVG-20010904/DTD/svg10.dtd">
<svg version="1.0" xmlns="http://www.w3.org/2000/svg"
 width="377.000000pt" height="134.000000pt" viewBox="0 0 377.000000 134.000000"
 preserveAspectRatio="xMidYMid meet">

<g transform="translate(0.000000,134.000000) scale(0.100000,-0.100000)"
fill="#000000" stroke="none">
<path d="M70 1180 l0 -80 103 -1 c56 0 109 -3 118 -7 13 -6 -4 -50 -102 -262
-64 -140 -115 -258 -112 -262 2 -5 116 -8 254 -8 l249 0 0 80 0 80 -120 0
c-66 0 -120 1 -120 3 0 2 43 98 96 213 53 115 106 232 119 260 13 29 21 55 18
58 -4 3 -118 6 -255 6 l-248 0 0 -80z"/>
<path d="M655 1248 c-3 -7 -4 -164 -3 -348 l3 -335 228 -3 227 -2 0 80 0 80
-150 0 -150 0 0 55 0 55 150 0 151 0 -3 78 -3 77 -147 3 -148 3 0 54 0 55 150
0 151 0 -3 78 -3 77 -223 3 c-173 2 -224 0 -227 -10z"/>
<path d="M1180 1181 l0 -79 129 -4 c88 -2 134 -8 145 -17 23 -19 21 -68 -3
-81 -11 -5 -76 -10 -146 -10 l-126 0 3 -77 3 -78 122 -5 c137 -6 148 -11 163
-76 5 -21 10 -74 10 -116 l0 -78 91 0 92 0 -5 118 c-5 130 -17 164 -69 205
-30 23 -31 25 -11 31 33 11 90 81 98 120 28 152 -104 226 -402 226 l-94 0 0
-79z"/>
<path d="M1871 1245 c-53 -17 -97 -57 -122 -110 -16 -34 -19 -66 -19 -225 0
-159 3 -191 19 -226 23 -51 81 -99 137 -113 68 -17 302 -14 357 5 56 19 113
80 124 133 5 20 8 115 8 211 0 159 -2 179 -22 215 -24 46 -54 75 -103 101 -47
25 -311 31 -379 9z m320 -171 c22 -24 24 -35 27 -144 5 -179 -19 -210 -167
-210 -136 0 -162 23 -169 150 -6 113 4 167 38 202 28 27 31 28 137 28 105 0
111 -1 134 -26z"/>
<path d="M2450 910 l0 -350 80 0 80 0 2 241 3 241 154 -241 153 -241 104 0
104 0 -2 348 -3 347 -77 3 -78 3 -2 -228 -3 -228 -140 225 -141 225 -117 3
-117 3 0 -351z"/>
<path d="M3209 1256 c-2 -2 -3 -38 -1 -80 l4 -76 224 0 225 0 -3 78 -3 77
-221 3 c-121 1 -222 0 -225 -2z"/>
<path d="M3208 914 c-2 -42 -1 -78 1 -80 2 -2 105 -4 228 -4 l224 0 -3 78 -3
77 -222 3 -221 2 -4 -76z"/>
<path d="M3208 640 l4 -80 224 0 224 0 0 80 0 80 -227 0 -228 0 3 -80z"/>
<path d="M1040 419 c-78 -23 -128 -108 -116 -194 14 -90 70 -135 169 -135 71
0 85 6 80 33 -4 20 -9 22 -64 19 -54 -4 -61 -1 -89 26 -26 27 -30 38 -30 86 0
47 4 61 29 88 27 30 34 33 90 33 49 -1 61 2 64 17 3 10 1 20 -3 23 -18 11 -97
14 -130 4z"/>
<path d="M1295 416 c-63 -28 -95 -85 -95 -164 0 -97 62 -162 154 -162 68 0
111 27 138 87 51 114 -11 239 -123 249 -25 3 -57 -2 -74 -10z m108 -57 c35
-26 50 -85 38 -140 -12 -55 -41 -83 -85 -83 -90 0 -127 134 -60 214 31 36 69
39 107 9z"/>
<path d="M1943 416 c-37 -17 -56 -48 -55 -89 1 -39 26 -64 90 -93 42 -18 52
-28 52 -47 0 -39 -23 -51 -85 -44 -48 5 -55 3 -60 -15 -10 -28 -2 -32 74 -36
61 -4 70 -2 99 23 27 22 32 34 32 69 0 50 -20 72 -92 106 -38 18 -48 27 -48
46 0 34 39 51 84 37 31 -10 35 -9 40 11 3 11 2 24 -2 28 -16 16 -97 18 -129 4z"/>
<path d="M3512 419 c-86 -16 -135 -75 -135 -165 0 -59 22 -105 66 -138 32 -24
145 -34 190 -17 26 10 27 12 27 91 l0 80 -60 0 c-53 0 -60 -2 -60 -20 0 -16 7
-20 30 -20 29 0 30 -2 30 -45 l0 -45 -40 0 c-78 0 -120 41 -120 118 0 82 67
131 158 116 34 -5 40 -3 45 16 3 12 0 23 -6 25 -31 9 -86 11 -125 4z"/>
<path d="M1560 255 l0 -165 31 0 31 0 -3 124 c-2 68 -3 123 -1 121 1 -1 33
-56 71 -121 62 -109 71 -119 100 -122 l31 -3 0 165 0 166 -25 0 -25 0 0 -121
0 -121 -34 64 c-19 36 -50 90 -70 121 -33 51 -40 57 -71 57 l-35 0 0 -165z"/>
<path d="M2150 305 c0 -172 25 -215 126 -215 42 0 59 5 83 26 40 33 51 77 51
202 l0 102 -30 0 -30 0 0 -104 c0 -118 -11 -159 -45 -174 -30 -14 -69 -1 -84
27 -6 11 -11 72 -11 135 l0 116 -30 0 -30 0 0 -115z"/>
<path d="M2480 255 l0 -165 95 0 c95 0 95 0 95 25 0 24 -2 25 -65 25 l-65 0 0
140 0 140 -30 0 -30 0 0 -165z"/>
<path d="M2640 395 c0 -23 3 -25 48 -25 l47 0 -3 -140 -3 -140 35 0 36 0 0
140 0 140 45 0 c41 0 45 2 45 25 l0 25 -125 0 -125 0 0 -25z"/>
<path d="M2930 255 l0 -165 30 0 30 0 0 165 0 165 -30 0 -30 0 0 -165z"/>
<path d="M3060 255 l0 -165 25 0 25 0 1 128 c0 86 3 122 10 112 5 -8 38 -64
72 -125 57 -101 65 -110 95 -113 l32 -3 0 165 0 166 -25 0 -25 0 0 -122 -1
-123 -21 40 c-11 22 -43 77 -70 123 -46 77 -51 82 -84 82 l-34 0 0 -165z"/>
</g>
</svg>
